<?xml version="1.0" standalone="no"?><!DOCTYPE svg PUBLIC "-//W3C//DTD SVG 1.1//EN" "http://www.w3.org/Graphics/SVG/1.1/DTD/svg11.dtd"><svg t="1777202780538" class="icon" viewBox="0 0 1024 1024" version="1.1" xmlns="http://www.w3.org/2000/svg" p-id="5544" xmlns:xlink="http://www.w3.org/1999/xlink" width="64" height="64"><path d="M507.930452 12.717337c277.237953 0 502.080477 224.842524 502.080477 502.080477S785.168405 1017.386985 507.930452 1017.386985 5.849975 792.544461 5.849975 514.797814C5.849975 237.559861 230.692499 12.717337 507.930452 12.717337z" fill="#95DAFF" p-id="5545"></path><path d="M379.739692 326.072529c0.508693 0 0.508693-0.508693 1.017387-0.508694 0 0-0.508693 0.508693-1.017387 0.508694z m135.312469-39.169399h-14.752111c2.543467 0 4.578241 0 7.121709 0.508693 3.052161-0.508693 5.086935-0.508693 7.630402-0.508693zM470.287134 422.215599c-43.74764 76.812717-118.01689 144.977645-190.251366 100.212618 4.578241 122.086438 104.790859 220.264282 227.894684 220.264282 123.612519 0 223.825137-98.177844 227.894685-220.264282-60.025832 37.134625-218.229508-17.295579-265.538003-100.212618zM387.370094 320.985594c1.017387-0.508693 1.52608-1.017387 2.543468-1.526081-0.508693 0.508693-1.52608 1.017387-2.543468 1.526081z" fill="#FBE9EA" p-id="5546"></path><path d="M601.530055 755.409836c1.017387 0.508693 2.034774 0.508693 3.052161 1.017387-1.52608-0.508693-2.034774-1.017387-3.052161-1.017387m-161.255837-6.613015c1.017387 0 1.52608-0.508693 2.543467-0.508694-0.508693 0-1.52608 0.508693-2.543467 0.508694m-26.960756 7.121709c0.508693 0 1.017387-0.508693 1.526081-0.508694-0.508693 0-1.017387 0-1.526081 0.508694M613.230005 758.970691c0.508693 0 1.52608 0.508693 2.034774 0.508693-2.543467 7.121709-6.104322 14.243418-9.665176 20.856433 16.278192 24.925981 12.208644 133.786388-12.208644 116.49081l-42.730254-30.012916-42.730253-30.012916 3.052161-2.034774h-6.104322l3.052161 2.034774-42.730253 30.012916-42.730254 30.012916c-24.417288 17.295579-28.486836-92.073522-12.208643-116.999503-4.069548-6.613015-7.121709-13.734724-9.665177-20.856433 0.508693 0 1.017387-0.508693 1.526081-0.508694-84.44312 29.504223-145.995032 93.599603-170.41232 179.060109 78.338798 54.430204 173.464481 86.477894 276.220566 86.477894 102.756085 0 197.881769-32.04769 276.220566-86.477894-24.417288-84.951813-86.477894-149.047193-170.921013-178.551415m-40.186786-10.682564c1.017387 0 2.034774 0.508693 3.052161 0.508694-1.017387 0-2.034774-0.508693-3.052161-0.508694m-106.31694-4.069548c1.017387 0 2.543467-0.508693 3.560855-0.508693-1.017387 0.508693-2.543467 0.508693-3.560855 0.508693m79.356185 0c1.017387 0 2.543467 0.508693 3.560854 0.508694-1.017387-0.508693-2.543467-0.508693-3.560854-0.508694" fill="#CFDF7C" p-id="5547"></path><path d="M410.769995 780.844511c3.052161-5.086935 7.121709-6.613015 12.208644-3.052161l42.730253 30.012916 39.678093 27.978142h6.104322l39.678092-27.978142 42.730253-30.012916c5.086935-3.560854 9.156483-2.034774 12.208644 3.052161 4.069548-6.613015 7.121709-13.734724 9.665176-20.856434l-2.034774-0.508693-9.156482-3.052161c-1.017387-0.508693-2.034774-0.508693-3.052161-1.017387-8.139096-2.543467-16.786885-4.578241-24.925981-6.104322-1.017387 0-2.034774-0.508693-3.052161-0.508693-7.630402-1.52608-15.260805-2.543467-23.399901-3.560855-1.017387 0-2.543467-0.508693-3.560855-0.508693-4.578241-0.508693-8.647789-1.017387-13.22603-1.526081h-48.834576c-4.578241 0.508693-9.156483 1.017387-13.22603 1.526081-1.017387 0-2.543467 0.508693-3.560855 0.508693-8.139096 1.017387-15.769498 2.034774-23.908594 4.069548-1.017387 0-1.52608 0.508693-2.543467 0.508694-8.647789 2.034774-17.295579 4.069548-25.434675 6.613015-0.508693 0-1.017387 0.508693-1.526081 0.508694-3.560854 1.017387-7.121709 2.034774-10.682563 3.560854-0.508693 0-1.017387 0.508693-1.52608 0.508693 1.017387 6.104322 4.578241 13.226031 8.647789 19.839047z" fill="#FDFDFD" p-id="5548"></path><path d="M593.390959 777.79235l-42.730254 30.012916-39.678092 27.978142-3.052161 2.034774 42.730253 30.012916 42.730254 30.012916c24.417288 17.295579 28.486836-91.564829 12.208644-116.49081-3.052161-5.595628-7.121709-7.121709-12.208644-3.560854z m-170.41232 0c-5.086935-3.560854-9.156483-2.034774-12.208644 3.052161-16.278192 24.925981-12.208644 133.786388 12.208644 116.999503l42.730253-30.012916 42.730254-30.012916-3.052161-2.034774-39.678093-27.978142-42.730253-30.012916z" fill="#7DA701" p-id="5549"></path><path d="M470.287134 422.215599c46.799801 82.917039 205.003477 137.347243 265.538003 99.703924 4.069548-76.812717-30.012916-137.855936-77.830105-178.551416-17.804272-15.260805-37.134625-27.469449-58.499751-37.134625-28.486836-12.717337-57.991058-19.330353-84.951814-19.330352-2.543467 0-5.086935 0-7.630402 0.508693 8.647789 27.469449-7.121709 83.425733-36.625931 134.803776z" fill="#F7B86F" p-id="5550"></path><path d="M470.287134 422.215599c29.504223-51.378043 45.273721-107.334327 37.134625-135.312469-2.543467 0-4.578241 0-7.121709-0.508694-34.591157-0.508693-74.26925 10.682563-110.386488 32.556384-1.017387 0.508693-1.52608 1.017387-2.543468 1.52608-2.034774 1.52608-4.578241 3.052161-6.613015 4.578242-0.508693 0-0.508693 0.508693-1.017387 0.508693-58.499752 39.678092-104.790859 107.334327-99.703924 195.846995h0.508693c71.725782 45.782414 145.995032-22.382514 189.742673-99.195231z" fill="#FACE77" p-id="5551"></path></svg>